Coordinates
version=1
nRows=4
nColumns=63
inDegrees=yes

Units are S.I. units (second, meters, Newtons, ...)
If the header above contains a line with 'inDegrees', this indicates whether rotational values are in degrees (yes) or radians (no).

endheader
time	pelvis_tilt	pelvis_list	pelvis_rotation	pelvis_tx	pelvis_ty	pelvis_tz	hip_flexion_r	hip_adduction_r	hip_rotation_r	knee_angle_r	knee_angle_r_beta	ankle_angle_r	subtalar_angle_r	mtp_angle_r	hip_flexion_l	hip_adduction_l	hip_rotation_l	knee_angle_l	knee_angle_l_beta	ankle_angle_l	subtalar_angle_l	mtp_angle_l	L5_S1_Flex_Ext	L5_S1_Lat_Bending	L5_S1_axial_rotation	L4_L5_Flex_Ext	L4_L5_Lat_Bending	L4_L5_axial_rotation	L3_L4_Flex_Ext	L3_L4_Lat_Bending	L3_L4_axial_rotation	L2_L3_Flex_Ext	L2_L3_Lat_Bending	L2_L3_axial_rotation	L1_L2_Flex_Ext	L1_L2_Lat_Bending	L1_L2_axial_rotation	L1_T12_Flex_Ext	L1_T12_Lat_Bending	L1_T12_axial_rotation	Abs_r3	Abs_r2	Abs_r1	Abs_t1	Abs_t2	neck_flexion	neck_bending	neck_rotation	arm_flex_r	arm_add_r	arm_rot_r	elbow_flex_r	pro_sup_r	wrist_flex_r	wrist_dev_r	arm_flex_l	arm_add_l	arm_rot_l	elbow_flex_l	pro_sup_l	wrist_flex_l	wrist_dev_l
      4.88135593	      3.34901066	    -12.97864811	    101.17501949	      0.16270351	      0.47199450	      0.99135275	     13.76203093	      0.82200724	    -16.62263339	      6.77900445	      0.11831595	     33.47218558	     14.58410643	      0.00000000	     15.86755448	     -0.67008776	     20.66674932	      6.68027876	      0.11659286	     27.61585406	    -14.94043361	      0.00000000	      0.00503254	     -0.61303255	      2.38680736	      0.00934593	     -0.81533329	      2.53598282	      0.00826796	     -1.49052734	      2.53598282	      0.00575169	     -1.49052734	      2.08845644	      0.00467322	     -1.25009597	      1.93928098	      0.00287559	     -0.94958742	      1.79010552	      0.03594694	     -6.93474681	     13.27470650	      0.00000000	      0.00000000	     21.68852067	      2.00432652	    -20.35510681	     55.67630535	    -26.49057568	     29.76192910	     63.38473698	     88.70810156	     -3.44020856	      0.72803009	      7.03839271	    -25.04614157	      6.52991288	     98.70178068	     86.26653829	     -6.72886629	     -6.39350623
      4.89830508	      3.45188795	    -12.34828504	    102.36939778	      0.16093977	      0.47282873	      0.98961884	     12.94117569	      0.80607537	    -17.80223905	      6.79472163	      0.11859026	     33.47737326	     14.56068048	      0.00000000	     15.24590119	     -0.59157967	     21.98696268	      6.53303460	      0.11402296	     27.79736937	    -15.17024681	      0.00000000	     -0.02487835	     -0.60802434	      2.24797471	     -0.04620159	     -0.80867237	      2.38847313	     -0.04087265	     -1.47835038	      2.38847313	     -0.02843347	     -1.47835038	      1.96697787	     -0.02310204	     -1.23988324	      1.82647945	     -0.01421549	     -0.94182970	      1.68598103	     -0.17770360	     -6.87809295	     12.50256094	      0.00000000	      0.00000000	     20.72185921	      1.99957238	    -21.47831005	     50.66210491	    -28.90600658	     27.61256258	     70.07333427	     89.02581087	     -2.63396040	      1.13630042	      4.80125730	    -25.71423472	      6.45806857	     99.92300945	     86.09792718	     -5.77295588	     -6.76581390
      4.91525424	      3.60649329	    -11.75039260	    102.97390366	      0.15985745	      0.47373787	      0.98759292	     12.24672202	      0.98515862	    -18.32097611	      6.86997946	      0.11990376	     33.37989529	     14.41901634	      0.00000000	     14.47810830	     -0.79977523	     22.47348487	      6.06854273	      0.10591605	     28.01663796	    -15.02003991	      0.00000000	     -0.03202315	     -0.58651937	      2.14477586	     -0.05947020	     -0.78007077	      2.27882435	     -0.05261084	     -1.42606320	      2.27882435	     -0.03659926	     -1.42606320	      1.87667888	     -0.02973670	     -1.19603030	      1.74263039	     -0.01829803	     -0.90851851	      1.60858189	     -0.22873818	     -6.63482444	     11.92859990	      0.00000000	      0.00000000	     19.83508491	      2.42223545	    -21.41143294	     46.68382711	    -30.89738141	     26.90504392	     74.51502697	     89.11351467	     -2.27461423	      0.67552001	      1.99848551	    -26.24868839	      5.75358653	    101.24182159	     85.54729298	     -5.20213351	     -6.64580983
      4.93220339	      3.56905826	    -11.17710426	    103.88617442	      0.15859931	      0.47467250	      0.98592441	     11.52159978	      0.92419835	    -19.18908191	      6.90595065	      0.12053158	     33.57582814	     14.35444774	      0.00000000	     13.93124491	     -0.67580382	     23.14957208	      5.97544342	      0.10429116	     28.27230822	    -15.16324071	      0.00000000	     -0.05560244	     -0.59543246	      2.05434267	     -0.10325930	     -0.79192517	      2.18273909	     -0.09134926	     -1.44773447	      2.18273909	     -0.06354803	     -1.44773447	      1.79754983	     -0.05163243	     -1.21420586	      1.66915342	     -0.03177124	     -0.92232487	      1.54075700	     -0.39716270	     -6.73565103	     11.42563762	      0.00000000	      0.00000000	     19.02366220	      2.47539172	    -22.45866592	     42.57587514	    -32.79594081	     25.37487624	     78.34944531	     89.15129429	     -1.75033147	      1.84108616	      0.27813868	    -26.90051039	      5.53366655	    102.15282132	     84.53546230	     -3.60940349	     -5.47451220
